<svg width="155" height="157" viewBox="0 0 155 157" fill="none" xmlns="http://www.w3.org/2000/svg">
<g filter="url(#filter0_d)">
<path d="M132.648 130.77H20.3525V38.6885H132.648V130.77Z" fill="url(#paint0_linear)"/>
<path d="M121.418 52.1639H20.3525V85.439C21.0719 85.7055 21.8319 85.8448 22.5984 85.8525C26.3193 85.8525 29.3361 82.8356 29.3361 79.1148C29.3361 82.8356 32.353 85.8525 36.0739 85.8525C39.7947 85.8525 42.8116 82.8356 42.8116 79.1148C42.8116 82.8356 45.8284 85.8525 49.5493 85.8525C53.2701 85.8525 56.287 82.8356 56.287 79.1148C56.287 82.8356 59.3038 85.8525 63.0247 85.8525C66.7455 85.8525 69.7624 82.8356 69.7624 79.1148C69.7624 82.8356 72.7792 85.8525 76.5001 85.8525C80.221 85.8525 83.2378 82.8356 83.2378 79.1148C83.2378 82.8356 86.2546 85.8525 89.9755 85.8525C93.6964 85.8525 96.7132 82.8356 96.7132 79.1148C96.7132 82.8356 99.73 85.8525 103.451 85.8525C107.172 85.8525 110.189 82.8356 110.189 79.1148C110.189 82.8356 113.205 85.8525 116.926 85.8525C120.647 85.8525 123.664 82.8356 123.664 79.1148C123.664 82.8356 126.681 85.8525 130.402 85.8525C131.168 85.8448 131.928 85.7055 132.648 85.439V52.1639H121.418Z" fill="#C3C5C7"/>
<path d="M31.582 90.3442H121.418V130.77H31.582V90.3442Z" fill="url(#paint1_linear)"/>
<path d="M121.418 99.3278H101.205V90.3442H96.7132V99.3278H78.746V90.3442H74.2542V99.3278H56.287V90.3442H51.7951V99.3278H31.582V103.82H51.7951V130.77H56.287V103.82H74.2542V130.77H78.746V103.82H96.7132V130.77H101.205V103.82H121.418V99.3278Z" fill="#3181BD"/>
<path d="M56.2871 70.1311H69.7625V74.6229C69.7625 78.3438 66.7457 81.3606 63.0248 81.3606C59.3039 81.3606 56.2871 78.3438 56.2871 74.6229V70.1311Z" fill="#DF9D55"/>
<path d="M29.3359 70.1311H42.8114V74.6229C42.8114 78.3438 39.7945 81.3606 36.0736 81.3606C32.3528 81.3606 29.3359 78.3438 29.3359 74.6229V70.1311Z" fill="#DF9D55"/>
<path d="M110.188 70.1311H123.664V74.6229C123.664 78.3438 120.647 81.3606 116.926 81.3606C113.205 81.3606 110.188 78.3438 110.188 74.6229V70.1311Z" fill="#DF9D55"/>
<path d="M69.7627 47.6721H83.2381V70.1311H69.7627V47.6721Z" fill="#7D431D"/>
<path d="M42.8115 47.6721H56.2869V70.1311H42.8115V47.6721Z" fill="#7D431D"/>
<path d="M29.3362 70.1311H15.8608L20.3526 47.6721H31.5822L29.3362 70.1311Z" fill="#7D431D"/>
<path d="M137.139 70.1311H123.664L121.418 47.6721H132.647L137.139 70.1311Z" fill="#7D431D"/>
<path d="M96.7134 47.6721H110.189V70.1311H96.7134V47.6721Z" fill="#7D431D"/>
<path d="M69.7622 70.1311H83.2376V74.6229C83.2376 78.3438 80.2208 81.3606 76.4999 81.3606C72.779 81.3606 69.7622 78.3438 69.7622 74.6229V70.1311Z" fill="#7D431D"/>
<path d="M42.8115 70.1311H56.2869V74.6229C56.2869 78.3438 53.2701 81.3606 49.5492 81.3606C45.8284 81.3606 42.8115 78.3438 42.8115 74.6229V70.1311Z" fill="#7D431D"/>
<path d="M15.8608 70.1311H29.3363V74.6229C29.3363 78.3438 26.3194 81.3606 22.5985 81.3606C18.8777 81.3606 15.8608 78.3438 15.8608 74.6229V70.1311Z" fill="#7D431D"/>
<path d="M123.664 70.1311H137.139V74.6229C137.139 78.3438 134.123 81.3606 130.402 81.3606C126.681 81.3606 123.664 78.3438 123.664 74.6229V70.1311Z" fill="#7D431D"/>
<path d="M96.7129 70.1311H110.188V74.6229C110.188 78.3438 107.171 81.3606 103.451 81.3606C99.7297 81.3606 96.7129 78.3438 96.7129 74.6229V70.1311Z" fill="#7D431D"/>
<path d="M56.2871 47.6721H69.7625V70.1311H56.2871V47.6721Z" fill="#DF9D55"/>
<path d="M42.8114 70.1311H29.3359L31.5818 47.6721H42.8114V70.1311Z" fill="#DF9D55"/>
<path d="M123.664 70.1311H110.188V47.6721H121.418L123.664 70.1311Z" fill="#DF9D55"/>
<path d="M83.2378 47.6721H96.7132V70.1311H83.2378V47.6721Z" fill="#DF9D55"/>
<path d="M83.2378 70.1311H96.7132V74.6229C96.7132 78.3438 93.6964 81.3606 89.9755 81.3606C86.2546 81.3606 83.2378 78.3438 83.2378 74.6229V70.1311Z" fill="#DF9D55"/>
<path d="M15.8608 130.771H137.139V139.754H15.8608V130.771Z" fill="#7D431D"/>
<path d="M38.3198 7.24585H114.68V29.7049H38.3198V7.24585Z" fill="url(#paint2_linear)"/>
<path d="M38.3198 7.24585H114.68V11.7377H38.3198V7.24585Z" fill="#6C7A33"/>
<path d="M45.0571 29.7048H54.0407V38.6884H45.0571V29.7048Z" fill="#C3C5C7"/>
<path d="M98.959 29.7048H107.943V38.6884H98.959V29.7048Z" fill="#C3C5C7"/>
<path d="M31.582 90.3442H121.418V94.8361H31.582V90.3442Z" fill="#3181BD"/>
<path d="M142.508 128.525H135.77V82.3575C138.541 80.7652 140.252 77.8174 140.262 74.6229V70.1311C140.25 70.05 140.234 69.9699 140.213 69.891C140.217 69.8241 140.217 69.7572 140.213 69.6914L135.77 47.4473V38.6885C135.77 37.4482 134.765 36.4426 133.525 36.4426H111.066V31.9508H115.557C116.798 31.9508 117.803 30.9452 117.803 29.7049V7.2459C117.803 6.00561 116.798 5 115.557 5H39.1967C37.9564 5 36.9508 6.00561 36.9508 7.2459V29.7049C36.9508 30.9452 37.9564 31.9508 39.1967 31.9508H43.6885V36.4426H21.2295C19.9892 36.4426 18.9836 37.4482 18.9836 38.6885V47.4473L14.5368 69.6815C14.5324 69.7484 14.5324 69.8153 14.5368 69.8822C14.517 69.9645 14.5017 70.0467 14.4918 70.1311V74.6229C14.5017 77.8174 16.2135 80.7652 18.9836 82.3575V128.525H12.2459C11.0056 128.525 10 129.53 10 130.77V139.754C10 140.994 11.0056 142 12.2459 142H142.508C143.748 142 144.754 140.994 144.754 139.754V130.77C144.754 129.53 143.748 128.525 142.508 128.525ZM135.77 74.6229C135.77 77.1035 133.759 79.1148 131.279 79.1148C128.798 79.1148 126.787 77.1035 126.787 74.6229V72.377H135.77V74.6229ZM122.295 88.0984H32.459C31.2187 88.0984 30.2131 89.104 30.2131 90.3443V128.525H23.4754V83.6066C26.0657 83.5978 28.5232 82.4661 30.2131 80.5031C31.8975 82.4726 34.3595 83.6066 36.9508 83.6066C39.5422 83.6066 42.0041 82.4726 43.6885 80.5031C45.373 82.4726 47.8349 83.6066 50.4262 83.6066C53.0176 83.6066 55.4795 82.4726 57.1639 80.5031C58.8484 82.4726 61.3103 83.6066 63.9016 83.6066C66.493 83.6066 68.9549 82.4726 70.6393 80.5031C72.3238 82.4726 74.7857 83.6066 77.3771 83.6066C79.9684 83.6066 82.4303 82.4726 84.1148 80.5031C85.7992 82.4726 88.2611 83.6066 90.8525 83.6066C93.4438 83.6066 95.9057 82.4726 97.5902 80.5031C99.2746 82.4726 101.737 83.6066 104.328 83.6066C106.919 83.6066 109.381 82.4726 111.066 80.5031C112.75 82.4726 115.212 83.6066 117.803 83.6066C120.395 83.6066 122.857 82.4726 124.541 80.5031C126.231 82.4661 128.688 83.5978 131.279 83.6066V128.525H124.541V90.3443C124.541 89.104 123.535 88.0984 122.295 88.0984ZM102.082 99.3279V92.5902H120.049V99.3279H102.082ZM120.049 103.82V128.525H102.082V103.82H120.049ZM79.6229 99.3279V92.5902H97.5902V99.3279H79.6229ZM97.5902 103.82V128.525H79.6229V103.82H97.5902ZM57.1639 99.3279V92.5902H75.1311V99.3279H57.1639ZM75.1311 103.82V128.525H57.1639V103.82H75.1311ZM34.7049 99.3279V92.5902H52.6721V99.3279H34.7049ZM52.6721 103.82V128.525H34.7049V103.82H52.6721ZM41.4426 72.377V74.6229C41.4426 77.1035 39.4314 79.1148 36.9508 79.1148C34.4702 79.1148 32.459 77.1035 32.459 74.6229V72.377H41.4426ZM32.6948 67.8852L34.4911 49.918H41.4426V67.8852H32.6948ZM54.918 72.377V74.6229C54.918 77.1035 52.9068 79.1148 50.4262 79.1148C47.9457 79.1148 45.9344 77.1035 45.9344 74.6229V72.377H54.918ZM45.9344 67.8852V49.918H54.918V67.8852H45.9344ZM68.3934 72.377V74.6229C68.3934 77.1035 66.3822 79.1148 63.9016 79.1148C61.4211 79.1148 59.4098 77.1035 59.4098 74.6229V72.377H68.3934ZM59.4098 67.8852V49.918H68.3934V67.8852H59.4098ZM81.8689 72.377V74.6229C81.8689 77.1035 79.8576 79.1148 77.3771 79.1148C74.8965 79.1148 72.8852 77.1035 72.8852 74.6229V72.377H81.8689ZM72.8852 67.8852V49.918H81.8689V67.8852H72.8852ZM95.3443 72.377V74.6229C95.3443 77.1035 93.333 79.1148 90.8525 79.1148C88.3719 79.1148 86.3607 77.1035 86.3607 74.6229V72.377H95.3443ZM86.3607 67.8852V49.918H95.3443V67.8852H86.3607ZM108.82 72.377V74.6229C108.82 77.1035 106.808 79.1148 104.328 79.1148C101.847 79.1148 99.8361 77.1035 99.8361 74.6229V72.377H108.82ZM99.8361 67.8852V49.918H108.82V67.8852H99.8361ZM122.295 72.377V74.6229C122.295 77.1035 120.284 79.1148 117.803 79.1148C115.323 79.1148 113.311 77.1035 113.311 74.6229V72.377H122.295ZM113.311 67.8852V49.918H120.274L122.07 67.8852H113.311ZM135.276 67.8852H126.573L124.777 49.918H131.683L135.276 67.8852ZM41.4426 27.459V9.4918H113.311V27.459H41.4426ZM106.574 31.9508V36.4426H102.082V31.9508H106.574ZM97.5902 31.9508V36.4426H57.1639V31.9508H97.5902ZM52.6721 31.9508V36.4426H48.1803V31.9508H52.6721ZM23.4754 40.9344H131.279V45.4262H23.4754V40.9344ZM23.0708 49.918H29.9883L28.192 67.8852H19.4782L23.0708 49.918ZM18.9836 72.377H27.9672V74.6229C27.9672 77.1035 25.956 79.1148 23.4754 79.1148C20.9948 79.1148 18.9836 77.1035 18.9836 74.6229V72.377ZM140.262 137.508H14.4918V133.016H140.262V137.508Z" fill="white"/>
</g>
<defs>
<filter id="filter0_d" x="-2" y="0" width="157" height="157" filterUnits="userSpaceOnUse" color-interpolation-filters="sRGB">
<feFlood flood-opacity="0" result="BackgroundImageFix"/>
<feColorMatrix in="SourceAlpha" type="matrix" values="0 0 0 0 0 0 0 0 0 0 0 0 0 0 0 0 0 0 127 0"/>
<feOffset dy="5"/>
<feGaussianBlur stdDeviation="5"/>
<feColorMatrix type="matrix" values="0 0 0 0 0 0 0 0 0 0 0 0 0 0 0 0 0 0 0.2 0"/>
<feBlend mode="normal" in2="BackgroundImageFix" result="effect1_dropShadow"/>
<feBlend mode="normal" in="SourceGraphic" in2="effect1_dropShadow" result="shape"/>
</filter>
<linearGradient id="paint0_linear" x1="46.2952" y1="44.374" x2="108.862" y2="123.661" gradientUnits="userSpaceOnUse">
<stop stop-color="#A7B668"/>
<stop offset="1" stop-color="#8EA339"/>
</linearGradient>
<linearGradient id="paint1_linear" x1="63.5552" y1="90.2205" x2="86.7482" y2="131.213" gradientUnits="userSpaceOnUse">
<stop stop-color="#7ABDEA"/>
<stop offset="1" stop-color="#4398D1"/>
</linearGradient>
<linearGradient id="paint2_linear" x1="107.692" y1="29.4642" x2="43.4734" y2="11.7276" gradientUnits="userSpaceOnUse">
<stop stop-color="#8DA338"/>
<stop offset="1" stop-color="#97AC45" stop-opacity="0.74"/>
</linearGradient>
</defs>
</svg>
