<svg width="133" height="144" viewBox="0 0 133 144" fill="none" xmlns="http://www.w3.org/2000/svg">
<g filter="url(#filter0_d)">
<path d="M28.7224 83.6122C20.8811 86.355 15.0001 98.5001 15 103.693C13.9207 110.931 13.5859 125.766 20.8811 127.203C27.5 129.5 107 129.391 112.037 127.203C121.267 120.566 118.496 103.54 115.958 95.8569C113.017 89.9794 112.037 88.5 108.606 85.5714C104.357 81.9438 92.5 80.6735 90.4732 79.6041C88.7394 78.6892 86.0625 77.245 85.0823 75.2859C84.1021 73.3267 85.5724 71.8574 86.5525 70.388C87.5327 68.9187 90.6507 65.3579 91.4534 64.0208C92.6666 62 93.2158 62.7728 95.3741 59.6127C97.5 56.5 100.275 45.8988 101.745 41.4907C103.215 37.0826 101.745 24.3482 99.2948 19.9401C96.8443 15.5321 91.9505 10.9898 89.5 10.5C87.0496 10.0103 83.9066 8.67439 77.2409 7.20566C69.5 5.50001 62.313 4.29437 54.5 6.00002C46.6871 7.70568 35.8669 16.0906 33 21.5C28.0906 30.7637 28.5496 51.6328 31 58C32.9604 63.0938 39.0142 74.2164 42.4448 79.6041L41.4647 80.6735C37.5 82.5001 33.1332 82.0694 28.7224 83.6122Z" fill="white"/>
<g clip-path="url(#clip0)">
<path d="M85.9368 15.6236C81.961 11.5007 59.4567 7.21105 47.0636 13.8567C31.8237 22.0289 25.1976 55.8221 52.3645 81.0012C52.4026 81.0366 59.4323 79.2343 59.4323 79.2343L85.9368 15.6236Z" fill="url(#paint0_linear)"/>
<path d="M78.9647 72.7594H78.8685V68.6323H54.1312V72.7552C54.1312 76.7943 54.1143 81.1846 50.5972 83.8403V123.408H66.4999C66.4999 123.408 74.827 123.408 82.4026 123.408V83.7788C78.9757 81.1164 78.9647 76.7639 78.9647 72.7594Z" fill="#FFD7A3"/>
<path d="M93.0044 86.3018H92.4156C85.4912 86.3018 82.1172 84.4117 80.4626 81.723L76.9737 96.9036H56.0268L52.5379 81.723C50.883 84.4117 47.509 86.3018 40.5849 86.3018H39.996C29.2616 86.3018 20.5593 95.0038 20.5593 105.739V118.107C20.5593 121.035 22.9325 123.408 25.8602 123.408H62.1182H70.8823H107.14C110.068 123.408 112.441 121.035 112.441 118.107V105.739C112.441 95.0041 103.739 86.3018 93.0044 86.3018Z" fill="#E4EBF0"/>
<path d="M66.4998 111.039C67.4756 111.039 68.2667 110.248 68.2667 109.273C68.2667 108.297 67.4756 107.506 66.4998 107.506C65.524 107.506 64.7329 108.297 64.7329 109.273C64.7329 110.248 65.524 111.039 66.4998 111.039Z" fill="#D0D7DC"/>
<path d="M66.4998 119.874C67.4756 119.874 68.2667 119.083 68.2667 118.107C68.2667 117.131 67.4756 116.34 66.4998 116.34C65.524 116.34 64.7329 117.131 64.7329 118.107C64.7329 119.083 65.524 119.874 66.4998 119.874Z" fill="#D0D7DC"/>
<path d="M82.4029 13.8564L70.0342 81.0009L78.8691 68.6322C97.5693 54.9384 105.594 13.8564 82.4029 13.8564Z" fill="#B06E53"/>
<path d="M80.6358 91.6027C81.2805 91.7786 81.8611 91.8723 82.4027 91.9179V83.7785C78.9758 81.1161 78.9648 76.7636 78.9648 72.7591H78.8687V68.632H59.4322L54.1313 70.3988C57.6651 74.3748 68.4879 88.2897 80.6358 91.6027Z" fill="#FDC88E"/>
<path d="M91.2376 45.6618C91.2376 59.8118 77.1649 77.4672 66.5003 77.4672C55.8356 77.4672 41.7629 59.8118 41.7629 45.6618C41.7629 31.5118 52.8384 26.2251 66.5003 26.2251C80.1621 26.2251 91.2376 31.5118 91.2376 45.6618Z" fill="url(#paint1_linear)"/>
<path d="M70.034 17.3905C69.0413 17.3905 65.8179 18.5059 63.1834 19.4834L62.9662 19.1574C62.9662 19.1574 62.6026 19.4431 61.9732 19.9382C60.5079 20.4946 59.4325 20.9243 59.4325 20.9243L59.8457 21.6133C53.1391 26.8973 39.6048 33.6842 38.2289 35.0601C36.462 36.8269 43.5298 56.9261 43.5298 56.2636C43.5298 37.9314 60.7334 35.8973 71.8011 33.2932C76.8074 32.1152 83.5809 29.1703 84.1698 26.2254C84.7587 23.2803 71.8009 17.3905 70.034 17.3905Z" fill="#B06E53"/>
<path d="M80.6359 27.9922C80.6359 37.1214 85.0534 44.8887 91.1273 46.4349C94.4557 47.2821 93.0048 36.8271 93.0048 36.8271C93.0048 36.8271 88.2928 24.7528 87.704 24.4585C87.1151 24.1639 82.4031 13.8567 82.4031 13.8567L71.8013 22.6916L80.6359 27.9922Z" fill="#B06E53"/>
<path d="M88.606 45.8232C91.4972 45.1605 93.3913 46.5764 93.3913 49.3572C93.3913 53.0384 89.5034 62.0572 85.416 56.425C81.3285 50.7927 88.606 45.8232 88.606 45.8232Z" fill="#FFE6BE"/>
<path d="M66.5 94.2806L57.665 103.116L45.2964 85.6342L49.4118 81.5189C50.0763 80.8543 51.1448 80.8263 51.8432 81.4549L66.5 94.2806Z" fill="#D0D7DC"/>
<path d="M66.5 94.2806L75.3349 103.116L87.7036 85.6342L83.5882 81.5189C82.9236 80.8543 81.8552 80.8263 81.1567 81.4549L66.5 94.2806Z" fill="#D0D7DC"/>
<path d="M40.5846 86.3018H39.9957C37.499 86.3018 35.1207 86.7897 32.928 87.6471V123.408H60L45.3751 85.913C44.0008 86.1601 42.4261 86.3018 40.5846 86.3018Z" fill="#A1B160"/>
<path d="M92.4156 86.3018H93.0045C95.5012 86.3018 97.8795 86.7897 100.072 87.6471V123.408H71L87.6252 85.913C88.9992 86.1601 90.5738 86.3018 92.4156 86.3018Z" fill="#A1B160"/>
<rect x="82" y="112.408" width="13" height="6" rx="1" fill="#F3F7E3"/>
</g>
</g>
<defs>
<filter id="filter0_d" x="0" y="0.17511" width="133" height="143.71" filterUnits="userSpaceOnUse" color-interpolation-filters="sRGB">
<feFlood flood-opacity="0" result="BackgroundImageFix"/>
<feColorMatrix in="SourceAlpha" type="matrix" values="0 0 0 0 0 0 0 0 0 0 0 0 0 0 0 0 0 0 127 0"/>
<feOffset dy="5"/>
<feGaussianBlur stdDeviation="5"/>
<feColorMatrix type="matrix" values="0 0 0 0 0 0 0 0 0 0 0 0 0 0 0 0 0 0 0.2 0"/>
<feBlend mode="normal" in2="BackgroundImageFix" result="effect1_dropShadow"/>
<feBlend mode="normal" in="SourceGraphic" in2="effect1_dropShadow" result="shape"/>
</filter>
<linearGradient id="paint0_linear" x1="59.8722" y1="10.4082" x2="59.8722" y2="81.0017" gradientUnits="userSpaceOnUse">
<stop stop-color="#B06E53"/>
<stop offset="1" stop-color="#955F49"/>
</linearGradient>
<linearGradient id="paint1_linear" x1="66.5003" y1="26.2251" x2="66.5003" y2="77.4672" gradientUnits="userSpaceOnUse">
<stop stop-color="#FFE1B2"/>
<stop offset="1" stop-color="#FFEACA"/>
</linearGradient>
<clipPath id="clip0">
<rect width="113" height="113" fill="white" transform="translate(10 10.4082)"/>
</clipPath>
</defs>
</svg>
