<svg width="124" height="114" viewBox="0 0 124 114" fill="none" xmlns="http://www.w3.org/2000/svg">
<g filter="url(#filter0_d)">
<path d="M27 93.5716C18.5 93.314 16 85.5716 14 80.5716V65.0716V54.0716C13 53.4049 10 51.3716 10 48.5716V32.5716C10.3333 29.2034 13.5 22.4671 23.5 22.4671C26.6848 19.4751 18.3434 14.3554 20.5 8.90958C24 0.0715942 34.1303 0.571564 40.5 0.571564C46.8697 0.571564 57.7701 5.79283 62.2488 8.90952C62.7465 7.66285 68.4456 2.50483 77.5 0.571572C88.4479 -1.76596 102.576 3.47324 103.5 8.90959C104.547 15.0716 100.069 20.1296 104.547 22.4671C110.985 23.9835 113.198 29.8353 113.5 32.5716V48.5716C113.5 51.3716 110 53.4049 109 54.0716V65.0716V80.5716C106.5 90.5716 99 93.5052 92 93.5716C75.5782 93.7274 35.5 93.8292 27 93.5716Z" fill="white"/>
</g>
<g clip-path="url(#clip0)">
<path d="M94.0234 6.64185H83.0625C73.6289 6.64185 65.4889 12.1399 61.5 20.0103C57.5111 12.1399 49.3711 6.64185 39.9375 6.64185H29.1562C27.6465 6.64185 26.4609 7.82736 26.4609 9.33716C26.4609 22.7056 37.3503 33.595 50.7188 33.595H72.2812C85.6497 33.595 96.7188 22.7056 96.7188 9.33716C96.7188 7.82736 95.5332 6.64185 94.0234 6.64185Z" fill="#FFD400"/>
<path d="M94.0234 6.64185H83.0625C73.6289 6.64185 65.4889 12.1399 61.5 20.0103V33.595H72.2812C85.6497 33.595 96.7188 22.7056 96.7188 9.33716C96.7188 7.82736 95.5332 6.64185 94.0234 6.64185Z" fill="#FDBF00"/>
<path d="M61.5002 33.595C60.9794 33.595 60.4579 33.4441 60.0051 33.1423L43.8333 22.361C42.5944 21.5356 42.2603 19.8615 43.0857 18.6234C43.9112 17.3845 45.5852 17.0504 46.8234 17.8758L61.5002 27.6604L76.177 17.8758C77.4152 17.0504 79.0892 17.3845 79.9147 18.6234C80.7401 19.8622 80.406 21.5356 79.1671 22.361L62.9953 33.1423C62.5425 33.4441 62.021 33.595 61.5002 33.595Z" fill="#FDBF00"/>
<path d="M62.9951 33.1423L79.1669 22.361C80.4058 21.5356 80.7399 19.8615 79.9145 18.6234C79.089 17.3845 77.415 17.0504 76.1768 17.8758L61.5 27.6604V33.595C62.0208 33.595 62.5423 33.4441 62.9951 33.1423Z" fill="#FF9F00"/>
<path d="M102.109 47.0715V79.4153C102.109 83.8892 98.4981 87.5012 94.0234 87.5012H69.5859L61.5 82.1106L53.4141 87.5012H29.1562C24.6816 87.5012 20.8906 83.8892 20.8906 79.4153V47.0715C20.8906 45.5617 22.0761 44.3762 23.5859 44.3762H99.4141C100.924 44.3762 102.109 45.5617 102.109 47.0715Z" fill="#F4464F"/>
<path d="M102.109 47.0715V79.4153C102.109 83.8892 98.4981 87.5012 94.0234 87.5012H69.5859L61.5 82.1106V44.3762H99.4141C100.924 44.3762 102.109 45.5617 102.109 47.0715Z" fill="#D12329"/>
<path d="M107.5 36.2903V47.0715C107.5 48.5806 106.314 49.7668 104.805 49.7668H18.1953C16.6855 49.7668 15.5 48.5806 15.5 47.0715V36.2903C15.5 31.8156 19.1113 28.2043 23.5859 28.2043H53.4141L61.5 33.595L69.5859 28.2043H99.4141C103.889 28.2043 107.5 31.8156 107.5 36.2903Z" fill="#F9847D"/>
<path d="M107.5 36.2903V47.0715C107.5 48.5806 106.314 49.7668 104.805 49.7668H61.5V33.595L69.5859 28.2043H99.4141C103.889 28.2043 107.5 31.8156 107.5 36.2903Z" fill="#ED3F45"/>
<path d="M53.4141 28.2043H69.5859V87.5012H53.4141V28.2043Z" fill="#FFE470"/>
<path d="M61.5 28.2043H69.5859V87.5012H61.5V28.2043Z" fill="#FFD400"/>
</g>
<defs>
<filter id="filter0_d" x="0" y="0" width="123.5" height="113.729" filterUnits="userSpaceOnUse" color-interpolation-filters="sRGB">
<feFlood flood-opacity="0" result="BackgroundImageFix"/>
<feColorMatrix in="SourceAlpha" type="matrix" values="0 0 0 0 0 0 0 0 0 0 0 0 0 0 0 0 0 0 127 0"/>
<feOffset dy="10"/>
<feGaussianBlur stdDeviation="5"/>
<feColorMatrix type="matrix" values="0 0 0 0 0 0 0 0 0 0 0 0 0 0 0 0 0 0 0.2 0"/>
<feBlend mode="normal" in2="BackgroundImageFix" result="effect1_dropShadow"/>
<feBlend mode="normal" in="SourceGraphic" in2="effect1_dropShadow" result="shape"/>
</filter>
<clipPath id="clip0">
<rect width="92" height="92" fill="white" transform="translate(15.5 1.07153)"/>
</clipPath>
</defs>
</svg>
